<?xml version="1.0"?>
<svg width="580" height="400" xmlns="http://www.w3.org/2000/svg">
	<!-- Created with Method Draw - http://github.com/duopixel/Method-Draw/ -->
	<g>
	<title>Layer 1</title>
	<path id="svg_6" d="m281.494873,50.502853c-5.585327,11.444946 -25.394501,4.166267 -32.557831,12.533012c0.692078,6.08654 -10.910065,7.819481 -17.130951,8.455666c-11.182098,3.855621 -30.004105,-4.807091 -34.806091,4.019913c14.440125,1.709518 30.934937,0.977875 43.921844,7.65834c8.957031,8.325531 24.759216,9.343506 31.423462,19.043137c6.595398,11.930771 0.272156,24.845383 -8.03775,35.240417c-7.117676,11.662415 -18.742493,22.07338 -22.590637,34.680267c0.272308,13.053558 6.220856,25.74588 4.211853,38.891083c1.271179,10.165588 8.741211,19.18631 13.225433,28.711182c6.583618,10.597931 13.077698,21.745453 23.192535,30.602142c9.240479,8.893219 39.346924,11.695282 31.127777,24.963837c-5.301422,11.132263 -9.763092,24.539795 -25.531158,29.622986c-12.521667,5.996918 -28.165283,8.953644 -38.246124,17.407745c5.052277,0.363007 37.054199,-14.395905 31.446106,1.6987c-12.544739,11.276764 22.295593,-0.693939 30.832672,-2.187561c6.243622,-1.000702 5.653534,14.655487 11.227509,3.810547c7.844452,-10.110138 8.207733,-21.388275 14.814758,-30.57666c3.258118,-10.27948 5.040405,7.956421 12.691925,10.144745c9.32019,9.520111 10.262482,-14.10437 14.780701,-19.748779c3.462372,-8.558502 6.096039,-23.367279 10.569214,-27.979065c0.260895,-2.838135 8.661469,3.94165 6.617981,-3.796661c1.191528,-23.534973 -2.429352,-48.969696 -20.626862,-68.735107c-12.646606,-8.646286 -17.414551,-21.617447 -28.131134,-31.545242c-13.191437,-4.827454 -10.603058,-19.71344 -26.575806,-21.169281c-3.632874,-10.256546 3.450928,-22.910751 6.096161,-33.807373c3.678284,-10.146057 11.159393,-20.705109 4.642944,-31.221466c-4.972076,-10.889862 -15.586456,-21.083061 -31.025543,-23.561096c-6.857208,-2.642509 -13.032593,-4.180412 -3.803436,-7.861763c6.198761,-7.755913 -9.592194,7.412537 -2.088379,-2.992844l0.328827,-2.300819l0,0l0,0zm-75.11763,24.172379c16.823776,0.332642 -11.624817,0.352524 0,0zm121.696426,219.185028c14.55365,4.703583 1.055756,21.601868 -7.197449,27.039917c-17.255707,-3.214111 3.14447,-19.262939 7.197449,-27.039917l0,0zm-14.008759,31.888275c-7.742462,2.41626 -20.320618,4.148529 -5.051849,0.468506l2.611115,-0.343384l2.440735,-0.125122l0,0z" stroke-width="1.5" stroke="#426373" fill="#128"/>
	</g>
</svg>